<svg width="500" height="500" viewBox="0 0 500 500" fill="none" xmlns="http://www.w3.org/2000/svg">
<g clip-path="url(#clip0_1626_2793)">
<path d="M250 500C388.071 500 500 388.071 500 250C500 111.929 388.071 0 250 0C111.929 0 0 111.929 0 250C0 388.071 111.929 500 250 500Z" fill="white"/>
<mask id="mask0_1626_2793" style="mask-type:luminance" maskUnits="userSpaceOnUse" x="75" y="75" width="350" height="350">
<path d="M425 250C425 153.35 346.65 75 250 75C153.35 75 75 153.35 75 250C75 346.65 153.35 425 250 425C346.65 425 425 346.65 425 250Z" fill="white"/>
</mask>
<g mask="url(#mask0_1626_2793)">
<path fill-rule="evenodd" clip-rule="evenodd" d="M298.56 49.3455H338.874V99.2159C326.224 91.7404 312.679 85.8973 298.56 81.8258V49.3455ZM298.56 81.8258C282.774 77.2838 266.427 74.986 250 74.9999C153.351 74.9999 75 153.35 75 250C75 346.649 153.351 425 250 425C346.649 425 425 346.649 425 250C425 185.794 390.423 129.664 338.874 99.2159V346.204H298.56V333.188C283.889 342.899 266.678 348.065 249.084 348.037C199.494 348.037 159.293 307.836 159.293 258.246C159.293 208.656 199.494 168.455 249.084 168.455C266.678 168.427 283.889 173.592 298.56 183.304V81.8258Z" fill="black"/>
</g>
</g>
<defs>
<clipPath id="clip0_1626_2793">
<rect width="500" height="500" fill="white"/>
</clipPath>
</defs>
</svg>
